<svg width="100%" height="100%" viewBox="0 0 1992 707" version="1.1" xmlns="http://www.w3.org/2000/svg" xmlns:xlink="http://www.w3.org/1999/xlink">
    <title>silouette</title>
    <g id="TacoTruck" stroke="none" stroke-width="1" fill="none" fill-rule="evenodd">
        <polygon id="silouette" fill="#911D1C" points="4.54714603 707 1992 707 1992 533.675679 1971.02517 533.675679 1971.02517 550.971851 1957.96124 550.971851 1957.96124 533.675679 1952.54413 533.675679 1952.54413 550.971851 1942.22875 550.971851 1942.22875 524.40788 1936.90959 524.40788 1936.90959 497.980777 1921.12511 497.980777 1921.12511 533.675679 1915.03572 533.675679 1915.03572 550.971851 1909.82554 550.971851 1909.82554 565.706828 1867.59684 565.706828 1867.59684 533.675679 1836.93548 533.675679 1836.93548 565.706828 1828.5692 565.706828 1828.5692 550.971851 1806.36192 550.971851 1806.36192 565.706828 1798.60212 565.706828 1798.60212 533.675679 1776.95489 533.675679 1776.95489 550.971851 1771.50419 550.971851 1771.50419 542.787496 1762.51047 542.787496 1762.51047 565.706828 1753.52698 565.706828 1753.52698 550.971851 1713.72913 550.971851 1713.72913 565.706828 1698.59641 565.706828 1698.59641 550.971851 1693.01738 550.971851 1693.01738 565.706828 1685.90896 565.706828 1685.90896 550.971851 1679.29572 550.971851 1679.29572 565.706828 1648.94785 565.706828 1648.94785 533.675679 1630.69113 533.675679 1630.69113 487.764225 1604.13161 487.764225 1604.13161 497.980777 1598.86718 497.980777 1598.86718 533.675679 1595.24441 533.675679 1595.24441 550.971851 1586.27624 550.971851 1586.27624 428.078846 1577.31202 428.078846 1577.31202 416.985563 1562.41446 416.985563 1562.41446 439.871667 1554.99988 439.871667 1554.99988 452.343742 1541.57876 452.343742 1541.57876 416.985563 1538.44821 416.985563 1538.44821 401.943543 1534.73996 401.943543 1534.73996 390.392155 1522.23204 390.392155 1522.23204 401.943543 1517.25926 401.943543 1517.25926 416.985563 1509.22911 416.985563 1509.22911 487.764225 1504.25214 487.764225 1504.25214 428.078846 1498.35498 428.078846 1498.35498 416.985563 1493.43431 416.985563 1493.43431 401.943543 1476.34584 401.943543 1476.34584 416.985563 1469.09182 416.985563 1469.09182 439.871667 1460.35054 439.871667 1460.35054 428.078846 1433.7109 428.078846 1433.7109 452.343742 1426.6546 452.343742 1426.6546 428.078846 1419.2201 428.078846 1411.67224 401.943543 1406.54935 416.985563 1392.79336 416.985563 1392.79336 428.078846 1385.60956 428.078846 1385.60956 452.343742 1381.09013 452.343742 1381.09013 476.027296 1371.4288 476.027296 1371.4288 327.003927 1344.24758 327.003927 1344.24758 337.629366 1338.91029 337.629366 1338.91029 428.078846 1335.039 428.078846 1335.039 487.764225 1326.2043 487.764225 1326.2043 476.027296 1314.97087 476.027296 1314.97087 461.079155 1310.30946 461.079155 1310.30946 352.839164 1306.06268 352.839164 1306.06268 337.629366 1278.27446 337.629366 1278.27446 352.839164 1259.09361 352.839164 1259.09361 542.787496 1247.5818 542.787496 1247.5818 533.675679 1240.14559 533.675679 1240.14559 439.871667 1235.19536 439.871667 1235.19536 452.343742 1207.83596 452.343742 1207.83596 524.40788 1185.60182 524.40788 1185.60182 517.001964 1172.1607 517.001964 1172.1607 421.255618 1161.72273 421.255618 1161.72273 406.005179 1155.21898 406.005179 1155.21898 341.269185 1108.61174 341.269185 1108.61174 327.003927 1093.7471 327.003927 1093.7471 352.839164 1089.00584 352.839164 1089.00584 509.385244 1072.89552 509.385244 1072.89552 497.980777 1070.11834 497.980777 1070.11834 416.985563 1061.72375 416.985563 1061.72375 401.943543 1052.16506 401.943543 1052.16506 416.985563 1043.11855 416.985563 1043.11855 372.716465 1010.91334 372.716465 1010.91334 476.027296 1006.41389 476.027296 1006.41389 461.079155 998.273573 461.079155 998.273573 439.871667 994.322788 439.871667 994.322788 416.985563 984.126566 416.985563 984.126566 447.490361 980.045411 447.490361 980.045411 461.079155 974.672862 461.079155 974.672862 476.027296 944.12372 476.027296 944.12372 487.764225 924.809246 487.764225 924.809246 223.621246 907.85496 223.621246 907.85496 237.799254 852.520365 237.799254 852.520365 465.310623 848.989631 465.310623 848.989631 452.343742 828.90215 452.343742 828.90215 421.255618 811.553114 421.255618 811.553114 409.727128 799.387085 409.727128 799.387085 352.839164 792.233298 352.839164 792.233298 341.269185 789.275402 341.269185 789.275402 327.003927 780.680703 327.003927 780.680703 341.269185 775.308942 341.269185 775.308942 352.839164 770.227642 352.839164 770.227642 461.079155 762.790848 461.079155 762.790848 409.727128 743.253252 409.727128 743.253252 285.050712 739.271092 285.050712 739.271092 246.937853 734.254323 246.937853 734.254323 203.028246 717.054654 203.028246 717.054654 246.937853 709.96779 246.937853 709.96779 285.050712 703.931746 285.050712 703.931746 406.005179 698.952962 406.005179 698.952962 421.255618 687.655506 421.255618 687.655506 439.871667 681.550397 439.871667 681.550397 517.001964 677.125745 517.001964 677.125745 493.787371 675.169578 493.787371 675.169578 476.027296 667.082129 476.027296 667.082129 447.490361 663.310156 447.490361 663.310156 189.081246 660.337193 189.081246 660.337193 170.989985 655.513557 170.989985 655.513557 143.048185 633.008471 143.048185 633.008471 163.431256 627.67966 163.431256 627.67966 183.7678 623.691499 183.7678 623.691499 395.936258 620.32319 395.936258 620.32319 421.255618 612.991969 421.255618 612.991969 533.675679 599.89095 533.675679 599.89095 436.080289 585.681351 436.080289 585.681351 416.985563 555.213749 416.985563 555.213749 436.080289 541.543332 436.080289 541.543332 517.001964 530.91834 517.001964 530.91834 481.438832 522.978615 481.438832 522.978615 436.080289 510.847262 436.080289 510.847262 416.985563 477.183297 416.985563 477.183297 436.080289 464.392538 436.080289 464.392538 509.385244 402.173556 509.385244 402.173556 327.003927 396.520071 327.003927 396.520071 306.539675 388.057332 306.539675 388.057332 289.815422 374.743074 289.815422 374.743074 0 320.920126 0 320.920126 481.438832 309.932657 481.438832 309.932657 406.005179 282.19045 406.005179 268.236441 439.871667 248.886622 439.871667 233.56628 476.027296 233.56628 530.228057 180.656705 530.228057 180.656705 517.001964 171.755477 517.001964 171.755477 497.980777 164.817042 497.980777 164.817042 533.675679 161.148174 533.675679 161.148174 517.001964 143.087884 517.001964 143.087884 530.228057 127.98676 530.228057 127.98676 520.691803 117.100888 520.691803 117.100888 538.481491 8.63892291e-16 538.481491 0 707"></polygon>
    </g>
</svg>