<svg width="100%" height="100%" viewBox="0 0 67 64" version="1.1" xmlns="http://www.w3.org/2000/svg" xmlns:xlink="http://www.w3.org/1999/xlink">
    <title>taco</title>
    <g id="TacoTruck" stroke="none" stroke-width="1" fill="none" fill-rule="evenodd">
        <g id="iPhone-11" transform="translate(-14.000000, -10.000000)">
            <g id="taco" transform="translate(14.000000, 10.000000)">
                <rect id="ViewBox" x="0" y="0" width="67" height="64"></rect>
                <path d="M23.1312977,52.4408845 L21,56 C21,56 24.6068115,55.1263538 28.1607373,52.907491 C31.714663,50.6886282 34.6709792,47.2635379 41.3768987,43.1881769 C48.7809106,38.6908845 58.1416972,37.8222022 62.9754593,32.823556 C66.7779483,28.892148 66.5822708,23.392148 64.6519392,18.8452166 C62.5312186,13.8564982 59.416245,12 59.416245,12 L23.1312977,52.4408845 Z" id="Path" fill="#FFB803" fill-rule="nonzero"></path>
                <path d="M49.9813166,16.4605743 C50.3696452,16.1826394 44.5757826,10.3509689 44.5757826,10.3509689 C44.5757826,10.3509689 35.2092971,3.69045671 21.8870376,9.14989291 C8.56477818,14.6093291 0.648052688,30.0644967 2.19101161,42.4673431 C3.56310596,53.4656255 8.79777533,57.2276733 14.3379299,56.9894434 C22.932936,56.6172091 27.230439,51.1528098 27.230439,51.1528098 L49.9813166,16.4605743 Z" id="Path" fill="#FFAA00" fill-rule="nonzero"></path>
                <path d="M44,10.6565791 C44,10.6565791 38.4006251,5.88820357 25.7914668,9.12831722 C13.1823085,12.3684309 2.25296258,27.2640222 3.04004452,40.4031049 C3.80599674,53.1799696 9.83853081,51.9692686 9.83853081,51.9692686 C9.83853081,51.9692686 26.9747309,26.7132525 27.4712793,26.3411109 C27.9625452,25.9689692 44,10.6565791 44,10.6565791 Z" id="Path" fill="#FFE265" fill-rule="nonzero"></path>
                <path d="M15.896269,55.3360029 C15.896269,55.3360029 12.3473343,56.6067562 9.86308006,55.6323446 C7.37882581,54.657933 5.88509511,51.8904031 6.00692421,50.3534446 C6.19761324,47.9324838 8.23162951,47.6713013 8.23162951,47.6713013 L11.9606593,41.1367163 L7.37882581,31.879806 C7.37882581,31.879806 7.07690152,30.0917105 7.72312544,29.2830493 C8.36405244,28.4693654 9.22215306,28.0625235 10.3345057,27.8616138 C11.4468584,27.6607042 17.3582181,23.9639674 17.3582181,23.9639674 C17.3582181,23.9639674 16.1981932,20.5485041 18.1262712,18.1928389 C20.0543491,15.8371737 21.8923794,15.5960822 21.8923794,15.5960822 C21.8923794,15.5960822 23.2219057,15.2294222 24.8904347,15.5559003 C26.5589636,15.8823784 27.3746889,16.3695842 27.3746889,16.3695842 L30.3727441,14.5011248 L35.2988773,14.1746467 C35.2988773,14.1746467 35.8550536,13.2002351 35.9398043,12.873757 C36.024555,12.5472789 36.0192581,11.2614574 38.2068849,9.96056768 C40.3945118,8.65967796 42.052447,9.01629252 42.6615925,9.13683829 C43.7580543,9.35281611 44.5314043,9.8500674 44.8598132,10.6938878 C45.3312388,11.8993454 44.4625444,16.4047434 44.4625444,16.4047434 L21.1825925,50.8004685 L15.896269,55.3360029 L15.896269,55.3360029 Z" id="Path" fill="#DA8119" fill-rule="nonzero"></path>
                <path d="M16.5628634,27.4610664 L9.80328373,29.106636 C9.80328373,29.106636 9.7455544,32.048715 11.7398403,33.2704258 C13.7341263,34.4921366 15.1038858,34.1131569 18.1635403,33.689298 C21.2179466,33.2704258 24.4980221,32.9313387 25.1592854,31.7096279 C25.8257967,30.4879171 25.1592854,29.1016494 24.1411499,28.004603 C23.1230145,26.9125432 21.3806383,25.2420407 21.3806383,25.2420407 L16.5628634,27.4610664 L16.5628634,27.4610664 Z M8.28132868,42.7000384 L7.21071203,42.1265823 C7.21071203,42.1265823 7.01653156,43.3283468 7.00078719,44.0464135 C6.96929847,45.4227081 7.89296774,46.7192175 7.89296774,46.7192175 C7.89296774,46.7192175 7.60432109,49.5515919 7.7827572,50.0153433 C7.96119331,50.4790947 16.5208784,52 16.5208784,52 L19.3128787,51.1173763 L21.9684279,42.4457231 L14.6577955,41.6877637 C14.6577955,41.6877637 8.4125317,42.4906022 8.28132868,42.7000384 Z M37.2562039,15.1940928 L34.0600983,17.5377829 C34.0600983,17.5377829 34.3015119,18.8392789 35.7342489,19.1584196 C37.1617378,19.4775604 38.9303545,17.9716149 39.995723,17.1338703 C41.0610915,16.2961258 43.2495579,13.9524357 42.9766557,13.6382815 C42.7037534,13.3191408 39.9327456,13 39.9327456,13 L37.2562039,15.1940928 L37.2562039,15.1940928 Z" id="Shape" fill="#714C40" fill-rule="nonzero"></path>
                <path d="M35.2625612,17.2962251 C36.1615869,17.1458511 39.9374946,12.9955287 39.9991421,12.7348804 C40.0607895,12.4742321 36.7831989,11.6321377 35.6529952,12.183509 C34.5227915,12.7348804 32.9405064,13.8676979 32.8839962,15.0005154 C32.8223487,16.1333328 32.8531725,17.2110132 33.3309404,17.3814371 C33.803571,17.5568734 34.5793017,17.4115119 35.2625612,17.2962251 L35.2625612,17.2962251 Z M13.4753168,31.9476654 C15.2168579,32.01784 18.94653,30.9752469 20.6469728,29.4815318 C22.3474156,27.9878167 21.5151747,26.0429796 21.2685848,25.5567703 C21.021995,25.0705611 19.4448471,23.2911354 17.7855026,23.2510356 C16.1261581,23.2109359 10.1977262,26.283578 9.66344806,28.022904 C9.12916996,29.7622299 10.2850601,30.3687384 10.9888687,30.8950474 C11.6926774,31.4213564 12.4375843,31.9075657 13.4753168,31.9476654 Z M21.1041916,38.7796576 C21.1041916,38.7796576 21.4381154,37.8874385 21.4381154,37.3260422 C21.4381154,36.7596335 20.8576017,35.5065168 20.1948914,35.787215 C19.532181,36.0679131 17.5029517,39.0653682 17.5029517,39.0653682 C17.5029517,39.0653682 15.1808969,37.4864412 12.6533505,37.6919523 C10.1258041,37.8974635 8.34316468,39.8773878 7.68045435,40.8046942 C7.01774401,41.7320005 6.96637112,42.2683345 7.01260672,42.8898803 C7.05884233,43.5114262 8.84148175,45.4562633 9.58638872,45.9424726 C10.3312957,46.4286819 14.5592849,46.5088813 15.0987003,46.183071 C15.6381156,45.8572607 18.0834654,43.5114262 18.4995859,42.7044191 C18.9157063,41.8974119 21.1041916,38.7796576 21.1041916,38.7796576 L21.1041916,38.7796576 Z M13.1002947,48.3685065 C13.1002947,48.3685065 11.6104807,47.2757887 10.9015348,47.0752901 C10.1977262,46.8747914 7.91676966,47.1554895 7.71127808,47.8020978 C7.50578651,48.448706 7.46468819,49.4211245 7.54688482,50.0677327 C7.62908145,50.7143409 8.79010886,52.7794772 9.16513099,53.3007738 C9.54015311,53.8270828 12.0676995,55 12.6893115,55 C13.3109235,55 15.1346613,54.9599003 15.4274868,54.7193019 C15.715175,54.4787035 15.7100377,53.0702003 15.3452902,51.8872581 C14.9240324,50.5489295 13.1002947,48.3685065 13.1002947,48.3685065 L13.1002947,48.3685065 Z" id="Shape" fill="#AC5832" fill-rule="nonzero"></path>
                <path d="M14.1602421,21.5850576 C14.0454385,21.9407987 13.779303,24.533323 14.3689759,24.9280494 C14.9586487,25.3227759 18.2409869,23.9826552 18.3244804,23.592802 C18.4079739,23.1980755 18.1992402,20.9174338 17.7765543,20.2887954 C17.3538685,19.660157 14.4107226,20.8004778 14.1602421,21.5850576 L14.1602421,21.5850576 Z M19.8064901,14.260689 C18.8776249,14.5482058 18.120965,18.1543487 18.5853976,18.544202 C19.0498302,18.9340552 22.6296141,19.4895962 23.1723218,19.0948697 C23.7202479,18.7001433 23.8872349,16.0296483 23.5532609,15.6739072 C23.2140686,15.3230392 20.8188488,13.9439332 19.8064901,14.260689 L19.8064901,14.260689 Z M51.9723611,11.3514089 C51.9723611,11.3514089 52.2228416,9.42650834 51.2157013,9.22670853 C50.2033426,9.03178189 49.6554165,10.2890587 49.6554165,10.2890587 C49.6554165,10.2890587 49.0657436,8.16435834 47.9698914,8.00841702 C47.2445416,7.90608054 45.6112,8.75401143 45.3189728,9.62143498 C45.0267455,10.4888585 44.9380337,11.3903942 44.9380337,11.3903942 C44.9380337,11.3903942 43.591701,11.0736385 44.0091685,12.3747738 C44.4318543,13.6710359 44.8493218,15.0111566 44.8493218,15.0111566 C44.8493218,15.0111566 51.9723611,11.2734383 51.9723611,11.3514089 Z M26.9190926,15.4789805 C27.106953,16.2538139 28.3071721,17.6426662 28.7716047,17.6816516 C29.2360373,17.7206369 32.3513885,15.5179659 32.3096418,14.8893274 C32.267895,14.260689 31.0468026,11.8630913 30.1179374,11.6632915 C29.1890722,11.4634917 26.7103589,14.611557 26.9190926,15.4789805 L26.9190926,15.4789805 Z" id="Shape" fill="#4E8F34" fill-rule="nonzero"></path>
                <path d="M32.8656699,11.026588 C31.6050263,10.7024014 30.7663336,13.4405312 31.0163786,13.9243173 C31.2664237,14.4081035 32.9073441,14.7273026 33.6210142,14.2036165 C34.3346844,13.6799305 34.0169188,11.3158622 32.8656699,11.026588 L32.8656699,11.026588 Z M23.8796772,37.4702386 C24.9944612,37.8243501 27.1146346,33.0862384 27.1146346,31.9590666 C27.1146346,30.8318948 24.8017182,29.664823 24.1297222,29.9890096 C23.4577262,30.3131962 21.2698323,33.3306252 21.2698323,34.0937106 C21.2750416,34.8567959 22.9993104,37.1909394 23.8796772,37.4702386 Z M24.8902758,42.0986256 C24.8902758,42.0986256 22.4523369,37.7944252 22.0720601,37.3904388 C21.6917833,36.9864524 21.0197873,36.4627664 20.1394205,37.2707391 C19.2590537,38.0787119 18.1234326,40.9714537 18.3318034,41.7794265 C18.5401743,42.5873992 20.014398,43.8741706 19.9310496,44.0337701 C19.8477013,44.1933697 17.2430657,44.9215426 16.9878114,46.043727 C16.7377664,47.1708988 17.6181333,50.3479274 18.2901292,50.7918136 C18.9621252,51.2356999 20.5613715,50.8317135 20.5613715,50.8317135 L24.8902758,42.0986256 L24.8902758,42.0986256 Z M6.60573405,31.111194 C5.67848379,31.111194 6.05876058,32.5575649 6.18378309,33.3655376 C6.3088056,34.1685229 6.01708641,35.2158949 7.11103335,35.2956947 C8.2049803,35.3754945 10.6429192,34.6922089 10.6429192,34.6922089 C10.6429192,34.6922089 10.5595709,33.8044364 10.0125974,32.7221519 C9.46562391,31.63488 9.34060141,30.9914943 8.75195377,31.0712941 C8.16330613,31.1510939 6.60573405,31.111194 6.60573405,31.111194 L6.60573405,31.111194 Z" id="Shape" fill="#4E8F34" fill-rule="nonzero"></path>
                <path d="M13.9760508,38.0744904 C14.328202,39.136929 10.6983352,41.3370231 9.56061578,40.9562376 C7.71317611,40.3403993 6.72173489,38.2249242 7.06846843,36.9744434 C7.42061969,35.7239626 11.0017271,35 11.6139285,35 C12.2261299,35 13.6672412,37.1436814 13.9760508,38.0744904 Z" id="Path" fill="#FCECC8" fill-rule="nonzero"></path>
                <path d="M11.7922805,35.3860764 C11.9210551,37.0870941 13.1229515,39.0891769 14.3033855,39.1493899 C15.0813989,39.1895319 16.438898,38.2110704 17.5066542,37.5286562 C18.5905072,36.8412243 19.4114454,36.1136504 19.8460598,35.6269285 C20.2806741,35.1402066 19.1968211,33.7653427 18.5475824,33.0377688 C17.8983437,32.3101948 17.1578896,31.883686 16.5998662,32.024183 C15.6447878,32.2650351 15.1296893,32.5911889 13.9170617,33.3187629 C13.1873388,33.7553072 11.7278931,34.4878989 11.7922805,35.3860764 L11.7922805,35.3860764 Z M10.8854925,42.6317093 C10.9284174,43.6954726 11.7064307,43.8058631 12.6185843,44.212301 C13.5307378,44.6187389 14.4375258,44.8595909 15.0009147,44.332727 C15.5643037,43.8058631 15.998918,40.9708336 15.7360032,40.2031177 C15.4784539,39.4354017 13.5736627,39.0691059 12.7902838,39.309958 C12.2000668,39.4956148 10.8425676,41.4976975 10.8854925,42.6317093 L10.8854925,42.6317093 Z M17.4637293,21.2962307 C17.7963971,22.1793549 19.8460598,23.2381004 20.6240731,22.9571064 C21.4020864,22.6761123 21.8367008,19.3543609 21.6220764,18.586645 C21.407452,17.818929 18.1612585,18.1400651 17.8124939,18.626787 C17.4637293,19.1084911 17.2061801,20.6087987 17.4637293,21.2962307 Z M22.0137659,21.3765147 C21.8420664,22.1693194 23.2693184,23.2381004 23.618083,23.3986685 C23.9668476,23.5592365 24.6590112,23.5592365 24.6590112,23.5592365 C24.6590112,23.5592365 23.9668476,24.8939584 23.6610079,25.7068341 C23.3551681,26.5197098 22.6630046,28.5017216 23.3122433,28.7827157 C23.961482,29.0637097 27.3364501,29.5102896 27.8998391,28.7425737 C28.463228,27.9748577 29.3270911,24.3319702 28.8549175,23.7649643 C28.3773783,23.1979584 25.4799494,23.1578164 25.4799494,23.1578164 C25.4799494,23.1578164 26.3867373,22.7112366 26.6067273,22.2646567 C26.8267173,21.8180768 25.5657991,20.2023609 24.701936,20.0769171 C23.8273417,19.9615088 22.1854654,20.5686567 22.0137659,21.3765147 L22.0137659,21.3765147 Z M23.4410179,18.4612012 C23.5536957,19.1536509 24.6965704,19.836065 25.7374986,19.675497 C26.7784268,19.514929 27.0789009,17.0461953 26.8213516,16.8003255 C26.5638024,16.5544557 25.1741096,16.1530356 24.701936,16.3938876 C24.2190312,16.6397574 23.3551681,17.9343373 23.4410179,18.4612012 Z M28.7637022,18.1802071 C28.409572,19.3342899 29.5578123,21.3614614 30.7543431,21.5421005 C31.8381962,21.7026685 34.6497754,19.9213668 35.0414648,19.1937929 C35.4331543,18.4662189 33.1795985,16.2383373 32.5303598,16.1580533 C31.8811211,16.0777693 30.7543431,16.8454852 30.3250944,17.1314971 C29.8904801,17.4074734 28.9354016,17.6132012 28.7637022,18.1802071 L28.7637022,18.1802071 Z M40.063675,10.2421245 C39.4895548,10.5732961 39.2051775,13.4534853 39.6719855,14.2111658 C40.1495247,14.9788817 42.7894044,14.6978877 43.6961924,13.5237339 C44.1737316,12.9065504 44.044957,10.2872843 43.6103426,10.1216985 C43.1810939,9.96113042 40.627064,9.92098841 40.063675,10.2421245 L40.063675,10.2421245 Z M19.5187576,52.1403481 C19.5187576,52.1403481 19.0304872,50.9561588 18.08614,50.6801825 C17.1417928,50.4042061 15.2530984,51.6235197 15.2530984,51.6235197 C15.2530984,51.6235197 14.9579898,48.8236145 14.3409448,48.2465731 C13.7238997,47.6695317 12.0981202,47.9404902 11.7064307,48.126147 C11.3147412,48.3067861 10.0806511,49.0393778 10.0162638,49.4658866 C9.95187653,49.8923955 10.0484575,53.0234723 10.8640301,53.2994487 C11.6796027,53.575425 12.2966477,53.7259575 12.9136928,53.635638 C13.5307378,53.5453185 14.475085,53.1790226 14.475085,53.1790226 C14.475085,53.1790226 14.1799765,54.3983362 14.6360533,54.8198273 C15.0921301,55.2463362 16.685716,54.7897208 16.782297,54.7295078 C16.8842435,54.664277 19.5187576,52.1403481 19.5187576,52.1403481 Z" id="Shape" fill="#FCECC8" fill-rule="nonzero"></path>
                <path d="M18.7510527,57 L15,55.710685 C15,55.710685 16.7159627,55.5457726 18.3900727,53.826686 C20.9169325,51.2280666 23.4385607,45.4861173 25.1702182,41.1434246 C26.9018757,36.8007318 28.6335332,32.1831851 31.0139084,27.6356012 C33.3942835,23.0880174 38.2387393,17.2611132 43.2819957,13.7129983 C49.4866658,9.35031617 56,11.5591426 56,11.5591426 L54.3206584,25.5716978 L25.2434605,53.9016461 L18.7510527,57 Z" id="Path" fill="#FFAA00" fill-rule="nonzero"></path>
                <path d="M58.2121059,28.661741 C62.5148113,23.9128702 62.7719242,17.6585064 60.8724372,14.0665414 C58.8470173,10.2320809 53.2010282,9.39850253 49.6539198,10.3735366 C46.122553,11.3435187 39.3798988,14.4858566 34.1641802,23.544075 C28.9484617,32.6022933 23.9059008,48.0108633 21.2875471,51.7644919 C19.4877569,54.3460589 17.5567867,55.6494724 15.9196597,56.2759191 C13.9572063,57.0236137 12,56.7760662 12,56.7760662 C12,56.7760662 17.8138995,57.7612042 21.9382001,55.5989525 C26.0625007,53.4367007 28.8854953,50.1124912 32.1440076,46.3992784 C33.4715496,44.8887333 37.5853558,40.6905295 42.0612189,37.9675068 C46.5318348,35.2394322 54.234727,33.0519204 58.2121059,28.661741 Z" id="Path" fill="#FFE265" fill-rule="nonzero"></path>
                <path d="M30.011263,41.3972194 C31.0655487,41.4473346 31.3575808,40.5502725 31.4664742,39.8135789 C31.5753675,39.0768854 31.3575808,38.119685 30.486434,38.0094315 C29.798426,37.9242357 29.2143616,38.4153647 29.0312228,39.5178992 C28.8678827,40.5001572 29.2490095,41.3571273 30.011263,41.3972194 L30.011263,41.3972194 Z M29.8330739,45.3362746 C29.2440598,45.0155373 28.486756,45.4816087 28.1947238,46.1080488 C27.9026916,46.7344889 27.9026916,47.5814359 28.4471584,47.8771156 C28.9916252,48.1727953 29.6697338,47.9422653 30.0855085,47.1053414 C30.4468364,46.3686479 30.3775406,45.6319543 29.8330739,45.3362746 Z M32.3772186,44.1184751 C31.4318263,43.5271157 31.8327518,42.3895005 32.3772186,41.5425535 C32.9216854,40.6956066 33.8324298,40.0340858 34.5600354,40.5101803 C35.287641,40.9912863 34.9956089,42.1689936 34.5253875,42.9758484 C34.1442608,43.6323576 33.2632146,44.6747539 32.3772186,44.1184751 Z" id="Shape" fill="#FFB700" fill-rule="nonzero"></path>
            </g>
        </g>
    </g>
</svg>