<svg width="306px" height="144px" viewBox="0 0 306 144" version="1.1" xmlns="http://www.w3.org/2000/svg" xmlns:xlink="http://www.w3.org/1999/xlink">
    <title>title</title>
    <g id="TacoTruck" stroke="none" stroke-width="1" fill="none" fill-rule="evenodd">
        <g id="iPhone-11" transform="translate(-54.000000, -165.000000)" fill="#FFEE00" fill-rule="nonzero">
            <g id="intro" transform="translate(-715.000000, 0.000000)">
                <g id="title" transform="translate(769.000000, 165.000000)">
                    <path d="M42.798973,59.229815 C43.4878434,58.8668454 43.8088418,58.2959152 43.7619681,57.5170243 C43.6727203,55.4594121 43.4857629,53.0801889 43.2010958,50.3793546 C42.9164287,47.6785203 42.5992083,45.7601612 42.2494346,44.6242772 C41.9653714,44.0851613 41.2805556,43.8385197 40.1949872,43.8843523 C39.1094189,43.930185 38.1398345,44.1779847 37.2862343,44.6277514 C36.8968728,44.8329081 36.6324689,45.0391897 36.4930226,45.2465962 C36.1022173,45.7395097 35.8356475,46.3774265 35.6933135,47.1603466 C35.5509795,47.9432667 35.5012767,48.7204283 35.544205,49.4918314 C35.5871333,50.2632345 35.5841699,51.1018676 35.5353148,52.0077307 C35.4864598,52.9135937 35.3796337,53.7639033 35.2148365,54.5586593 C35.0500393,55.3534153 34.6692231,56.1376281 34.0723878,56.9112975 C33.4755525,57.6849669 32.6754575,58.3361382 31.6721028,58.8648114 C31.1928887,59.117312 30.101092,57.6262145 28.3967129,54.3915188 L28.3967129,54.3915188 L21.8395878,41.9469258 C21.5318527,41.3628835 21.2866384,40.8702636 21.1039448,40.4690662 C20.9212512,40.0678687 20.7529287,39.6303994 20.5989772,39.1566584 C20.4450258,38.6829173 20.3701403,38.2775311 20.3743207,37.9404997 C20.3785011,37.6034683 20.4585661,37.2742857 20.6145156,36.9529517 C20.770465,36.6316177 21.0163091,36.3537998 21.3520478,36.119498 C21.6507508,35.9238436 21.8818629,35.7542367 22.045384,35.6106774 C22.2089051,35.467118 22.373593,35.2894609 22.5394478,35.0777062 C22.7053025,34.8659515 22.7893547,34.6351165 22.7916045,34.3852012 C22.7938542,34.135286 22.7200179,33.8680616 22.5700957,33.5835282 C21.9940787,32.4903209 21.2781286,31.4038794 20.4222455,30.3242036 C19.5663623,29.2445278 18.8577487,28.68038 18.2964047,28.63176 C16.7296241,29.7251683 13.8346964,31.3844533 9.61162153,33.6096149 L9.19117754,33.8308212 C4.47636037,36.3076499 1.46884492,37.7585044 0.168631168,38.1833845 C-0.108649641,38.6738805 -0.0439801095,39.577326 0.362639763,40.8937211 C0.769259635,42.2101162 1.26057807,43.4149174 1.83659508,44.5081248 C1.98651732,44.7926582 2.16518167,45.004648 2.37258814,45.1440943 C2.57999461,45.2835405 2.8179144,45.3447266 3.08634751,45.3276527 C3.35478061,45.3105787 3.59442965,45.2751884 3.80529462,45.2214817 C4.01615959,45.1677749 4.28672486,45.0730453 4.61699045,44.9372926 C5.00007301,44.7928435 5.36822208,44.747145 5.72143766,44.8001971 C6.07465324,44.8532492 6.39143751,44.9733298 6.67179049,45.1604389 C6.95214346,45.347548 7.2441729,45.6385199 7.54787878,46.0333545 C7.85158467,46.4281892 8.11724757,46.8143692 8.34486748,47.1918948 C8.57248738,47.5694203 8.84016489,48.0502043 9.14790001,48.6342465 L9.14790001,48.6342465 L14.343889,58.4955756 C14.698968,59.1694706 14.98424,59.7653488 15.1997049,60.2832104 C15.4151698,60.8010719 15.5916264,61.353837 15.7290746,61.9415055 C15.8665228,62.5291741 15.8681428,63.0496966 15.7339346,63.503073 C15.5997263,63.9564494 15.3198265,64.3239605 14.8942352,64.6056061 C14.5805567,64.8091512 14.3437281,64.9769868 14.1837494,65.1091132 C14.0237707,65.2412395 13.860854,65.41318 13.6949993,65.6249348 C13.5291445,65.8366895 13.4450923,66.0675245 13.4428426,66.3174397 C13.4405928,66.567355 13.5144291,66.8345793 13.6643513,67.1191127 C14.2640403,68.2572464 15.0016896,69.3848704 15.8772994,70.5019848 C16.7529092,71.6190992 17.4753314,72.209454 18.044566,72.2730494 C19.2298757,71.3997733 22.5181103,69.5428193 27.9092697,66.7021875 C29.5715438,65.826326 31.2097851,64.9774774 32.8239935,64.1556417 C34.4382018,63.3338059 35.8110319,62.643937 36.9424836,62.0860349 C38.0739354,61.5281329 39.0761233,61.0335574 39.9490472,60.6023085 C40.8219711,60.1710597 41.507702,59.8384438 42.0062399,59.6044611 C42.5047778,59.3704783 42.7690221,59.2455963 42.798973,59.229815 Z M71.1580565,49.7428521 C73.5425657,49.0317547 75.7121516,48.1330424 77.6668143,47.0467153 C79.6214769,45.9603883 81.3438581,44.6430476 82.833958,43.0946932 C84.3240578,41.5463389 85.4861135,39.8308563 86.3201252,37.9482454 C87.1541369,36.0656346 87.612013,33.9286706 87.6937535,31.5373535 C87.775494,29.1460364 87.417279,26.6121329 86.6191084,23.935643 C86.004759,21.8755568 85.1521397,20.0234203 84.0612508,18.3792335 C82.9703619,16.7350467 81.6293922,15.3332433 80.0383418,14.1738234 C78.4472914,13.0144035 76.6624347,12.1379922 74.6837717,11.5445896 C72.7051086,10.9511871 70.4745836,10.6978497 67.9921964,10.7845775 C65.5098093,10.8713054 62.8898179,11.3258481 60.1322223,12.1482057 C53.4166658,14.1508882 48.634151,17.3788091 45.7846779,21.8319684 C42.9352048,26.2851277 42.3811998,31.4315145 44.1226628,37.2711288 C45.8931503,43.20807 49.1992796,47.2607124 54.0410507,49.4290558 C58.8828218,51.5973993 64.5884904,51.701998 71.1580565,49.7428521 Z M69.6821132,43.6385864 C67.0867291,44.41257 64.5482446,40.6388366 62.0666597,32.3173862 C59.4254407,23.4606378 59.2403117,18.6936458 61.5112729,18.0164102 C62.1276766,17.8325891 62.7307705,17.8558701 63.3205546,18.0862534 C63.9103387,18.3166366 64.4576439,18.745157 64.9624701,19.3718145 C65.4672963,19.998472 65.9343432,20.6761392 66.3636107,21.4048163 C66.7928783,22.1334933 67.210545,23.0157717 67.6166109,24.0516514 C68.0226768,25.0875311 68.3640751,26.0102176 68.640806,26.8197109 C68.9175369,27.6292043 69.2082803,28.5449172 69.5130364,29.5668497 C69.764581,30.4103495 69.9612777,31.0847366 70.1031265,31.590011 C70.2449752,32.0952854 70.4367622,32.7976323 70.6784873,33.6970517 C70.9202124,34.5964711 71.0904412,35.3449903 71.1891737,35.9426095 C71.2879061,36.5402286 71.3982324,37.2359568 71.5201526,38.029794 C71.6420728,38.8236311 71.6823222,39.491682 71.6409009,40.0339466 C71.5994796,40.5762112 71.5219879,41.1159847 71.4084259,41.6532672 C71.2948639,42.1905497 71.0882474,42.6231044 70.7885764,42.9509314 C70.4889053,43.2787583 70.1200843,43.5079767 69.6821132,43.6385864 Z M123.90572,39.2563313 C124.679278,39.1674647 125.185244,38.7515324 125.423618,38.0085345 C126.085568,36.0582638 126.772908,33.7728272 127.485638,31.1522247 C128.198367,28.5316222 128.597389,26.6285952 128.682704,25.4431436 C128.613156,24.8377503 128.064141,24.3598518 127.035658,24.0094479 C126.007175,23.6590439 125.013664,23.5389007 124.055125,23.6490181 C123.617897,23.699247 123.296737,23.7957765 123.091646,23.9386063 C122.548864,24.2565375 122.069374,24.7546203 121.653176,25.4328547 C121.236977,26.1110891 120.909208,26.8175011 120.669868,27.5520908 C120.430528,28.2866805 120.124065,29.0673177 119.750479,29.8940026 C119.376892,30.7206874 118.969387,31.474596 118.527965,32.1557282 C118.086542,32.8368604 117.44758,33.4299362 116.61108,33.9349556 C115.77458,34.439975 114.792978,34.7572028 113.666274,34.886639 C113.128147,34.9484593 112.65044,33.1631897 112.233153,29.5308302 L112.233153,29.5308302 L110.627757,15.5563359 C110.552414,14.9004932 110.50224,14.3525087 110.477236,13.9123824 C110.452231,13.4722561 110.453758,13.0035243 110.481816,12.506187 C110.509874,12.0088497 110.586877,11.6038604 110.712825,11.2912191 C110.838774,10.9785778 111.032614,10.7007332 111.294346,10.4576852 C111.556077,10.2146371 111.885843,10.0447058 112.283643,9.94789116 C112.632925,9.87368864 112.909772,9.79928838 113.114182,9.7246904 C113.318592,9.65009241 113.536438,9.5441337 113.76772,9.40681427 C113.999002,9.26949484 114.160943,9.08476641 114.253544,8.85262899 C114.346145,8.62049158 114.374092,8.34466631 114.337386,8.02515321 C114.196359,6.79755022 113.922446,5.52557869 113.515648,4.20923861 C113.10885,2.89289852 112.652634,2.11042655 112.146998,1.86182267 C110.290599,2.31362438 106.991276,2.81192086 102.249029,3.35671213 C96.6827741,3.99616571 93.1966479,4.27738438 91.7906502,4.20036815 C91.3545627,4.55715753 91.0876707,5.42270052 90.9899743,6.79699712 C90.8922778,8.17129371 90.9139433,9.47224351 91.0549708,10.6998465 C91.0916766,11.0193596 91.1814444,11.2816617 91.3242743,11.4867527 C91.4671041,11.6918438 91.6667172,11.8350367 91.9231134,11.9163315 C92.1795095,11.9976263 92.4157085,12.0514241 92.6317101,12.077725 C92.8477118,12.1040259 93.1342175,12.113708 93.4912273,12.1067714 C93.9006185,12.1108557 94.2603284,12.2015798 94.5703571,12.3789437 C94.8803858,12.5563077 95.1321824,12.7829574 95.3257469,13.0588929 C95.5193114,13.3348284 95.6861472,13.7118054 95.8262543,14.1898239 C95.9663613,14.6678423 96.0741416,15.1240169 96.1495953,15.5583475 C96.225049,15.9926782 96.3004476,16.5377648 96.3757911,17.1936075 L96.3757911,17.1936075 L97.6479367,28.2672591 C97.7348714,29.0240007 97.7849902,29.6827412 97.7982929,30.2434807 C97.8115957,30.8042201 97.7758979,31.3833676 97.6911995,31.9809231 C97.6065012,32.5784786 97.4195102,33.064257 97.1302266,33.4382583 C96.8409429,33.8122596 96.4469517,34.0534633 95.948253,34.1618692 C95.5821542,34.2380036 95.3006208,34.3086827 95.1036528,34.3739065 C94.9066847,34.4391303 94.6925598,34.540402 94.4612781,34.6777214 C94.2299964,34.8150408 94.0680551,34.9997693 93.9754543,35.2319067 C93.8828534,35.4640441 93.8549059,35.7398693 93.8916117,36.0593825 C94.0384349,37.3374349 94.3176603,38.6556517 94.7292879,40.014033 C95.1409155,41.3724143 95.6005129,42.1843151 96.1080801,42.4497355 C97.5291828,42.0649792 101.2667,41.524862 107.320633,40.8293838 C109.187262,40.6149447 111.021707,40.4169817 112.823968,40.2354948 C114.62623,40.054008 116.155706,39.9081183 117.412397,39.7978259 C118.669089,39.6875335 119.782357,39.589458 120.752203,39.5035994 C121.722048,39.4177408 122.481687,39.3560308 123.031121,39.3184693 C123.580554,39.2809078 123.872087,39.2601951 123.90572,39.2563313 Z M154.203053,38.6491749 C154.679868,38.3318116 155.05143,37.4802825 155.317739,36.0945878 C155.584047,34.708893 155.722953,33.3728422 155.734458,32.0864353 C155.737334,31.7648335 155.680513,31.4934812 155.563996,31.2723784 C155.447479,31.0512755 155.266996,30.8846158 155.022547,30.7723992 C154.778098,30.6601827 154.554505,30.5820082 154.351766,30.5378758 C154.149028,30.4937433 153.861619,30.4530856 153.489541,30.4159026 C152.982203,30.3605822 152.565015,30.1621821 152.237978,29.8207022 C151.91094,29.4792224 151.673864,29.0158207 151.526748,28.4304974 C151.379633,27.845174 151.283183,27.2729996 151.237399,26.713974 C151.191616,26.1549485 151.172129,25.4945916 151.178941,24.7329033 L151.178941,24.7329033 L151.278619,13.5868646 C151.284523,12.9267348 151.302137,12.3767401 151.331462,11.9368806 C151.360787,11.4970211 151.419961,11.0320368 151.508983,10.5419279 C151.598005,10.051819 151.72424,9.65937747 151.88769,9.36460338 C152.05114,9.0698293 152.277686,8.81793887 152.567327,8.6089321 C152.856968,8.39992533 153.205132,8.27184879 153.61182,8.22470248 C153.967577,8.19402847 154.251473,8.15424792 154.463507,8.10536084 C154.675541,8.05647376 154.904767,7.97811685 155.151184,7.87029009 C155.397601,7.76246333 155.581035,7.59905811 155.701488,7.38007442 C155.821941,7.16109074 155.883605,6.89079803 155.886481,6.56919631 C155.897531,5.33356863 155.782163,4.03756325 155.540377,2.68118016 C155.29859,1.32479707 154.94209,0.492148672 154.470875,0.183234959 C152.572998,0.403251064 149.237437,0.491915763 144.46419,0.449229057 L143.989127,0.444690423 C138.6636,0.390487074 135.32771,0.242256934 133.98146,7.10542736e-15 C133.504796,0.300436921 133.133461,1.12657636 132.867455,2.47841831 C132.601449,3.83026026 132.462921,5.12399507 132.451871,6.35962274 C132.448995,6.68122447 132.505816,6.95257677 132.622333,7.17367965 C132.73885,7.39478254 132.919333,7.56144224 133.163782,7.67365877 C133.408231,7.78587529 133.636018,7.86831924 133.847144,7.9209906 C134.05827,7.97366196 134.341409,8.01851344 134.696561,8.05554505 C135.10234,8.10995719 135.448159,8.24423995 135.734015,8.45839334 C136.019872,8.67254673 136.241876,8.9284485 136.400028,9.22609864 C136.55818,9.52374878 136.677377,9.91838518 136.75762,10.4100078 C136.837862,10.9016305 136.88871,11.3675986 136.910164,11.8079122 C136.931618,12.2482259 136.939393,12.7984476 136.93349,13.4585774 L136.93349,13.4585774 L136.833812,24.6046161 C136.827,25.3663044 136.795707,26.0262072 136.739932,26.5843245 C136.684158,27.1424418 136.577491,27.7127998 136.419931,28.2953985 C136.262371,28.8779972 136.017045,29.3370847 135.683952,29.6726611 C135.35086,30.0082375 134.93019,30.1991447 134.421944,30.2453828 C134.04926,30.2759054 133.761171,30.3114165 133.557676,30.3519161 C133.35418,30.3924157 133.129224,30.4665788 132.882808,30.5744056 C132.636391,30.6822323 132.452956,30.8456376 132.332503,31.0646213 C132.212051,31.2836049 132.150386,31.5538976 132.14751,31.8754994 C132.136006,33.1619063 132.250996,34.5002277 132.492479,35.8904636 C132.733963,37.2806995 133.090237,38.1387375 133.5613,38.4645776 C134.781818,38.2723594 138.269566,38.2019835 144.024544,38.2534497 L144.484944,38.2578022 C149.797057,38.3107938 153.036426,38.4412513 154.203053,38.6491749 Z M186.192285,42.7344876 C186.854489,42.5186763 187.445185,41.8016466 187.964371,40.5833985 C188.483558,39.3651503 188.825656,38.1608056 188.990665,36.9703644 C189.034823,36.6517956 189.021707,36.376555 188.95132,36.1446424 C188.880932,35.9127298 188.740697,35.7224023 188.530614,35.5736599 C188.320531,35.4249174 188.138752,35.3185484 187.985278,35.2545527 C187.831804,35.1905571 187.607652,35.1124924 187.312822,35.0203588 C186.883858,34.9096325 186.553461,34.6117739 186.32163,34.126783 C186.089799,33.6417921 185.967948,32.9797953 185.956077,32.1407927 C185.944206,31.30179 185.970185,30.4979394 186.034013,29.7292408 C186.097842,28.9605423 186.20645,28.0228893 186.359839,26.916282 L186.359839,26.916282 L188.583978,10.8704759 C188.753636,9.64650117 189.157033,9.0786712 189.794171,9.16698603 C189.995372,9.19487492 190.197985,9.27422619 190.402008,9.40503982 C190.606032,9.53585345 190.80134,9.7295425 190.987934,9.98610696 C191.174527,10.2426714 191.347964,10.5016845 191.508245,10.7631463 C191.668525,11.024608 191.831504,11.3590716 191.997181,11.7665371 C192.162857,12.1740025 192.305583,12.5312922 192.425358,12.8384062 C192.545133,13.1455201 192.677857,13.5441457 192.82353,14.034283 C192.969202,14.5244203 193.086321,14.9123385 193.174887,15.1980375 C193.263453,15.4837365 193.37638,15.8710736 193.513669,16.3600489 C193.650959,16.8490242 193.748738,17.1915393 193.807007,17.3875942 C193.900635,17.451839 194.04805,17.4979058 194.249252,17.5257947 C195.154658,17.6512947 196.319782,17.6290889 197.744626,17.4591773 C199.169469,17.2892657 200.011791,17.0685154 200.271593,16.7969263 C200.394936,16.5235115 200.471714,16.27782 200.501927,16.0598519 C200.599538,15.3556472 200.655066,14.4619034 200.66851,13.3786205 C200.681955,12.2953375 200.673196,11.341416 200.642234,10.5168561 C200.611272,9.69229613 200.569104,8.7636494 200.515731,7.7309159 C200.462357,6.69818239 200.43401,6.07050751 200.43069,5.84789125 C197.363366,5.66196867 191.336208,4.94615543 182.349215,3.70045155 C173.110721,2.41988654 166.948432,1.44609768 163.862348,0.779084952 C163.798602,0.992404911 163.600597,1.58870479 163.268335,2.56798458 C162.936072,3.54726438 162.642323,4.43362131 162.387088,5.22705539 C162.131853,6.02048947 161.86396,6.9360637 161.583409,7.97377809 C161.302858,9.01149248 161.113777,9.882452 161.016166,10.5866567 C160.985953,10.8046248 160.993009,11.0619366 161.037333,11.3585922 C161.213468,11.6906072 161.96399,12.1321446 163.288898,12.6832044 C164.613806,13.2342642 165.728963,13.5725441 166.634369,13.6980441 C166.818804,13.7236089 166.973191,13.7193755 167.09753,13.6853436 C167.180866,13.5772725 167.439588,13.1901836 167.873697,12.5240771 C168.307806,11.8579705 168.619484,11.3970497 168.808732,11.1413145 C168.997981,10.8855794 169.303268,10.4707671 169.724594,9.89687786 C170.14592,9.32298858 170.494868,8.90141146 170.771436,8.63214651 C171.048004,8.36288155 171.371718,8.06170154 171.742579,7.72860646 C172.113439,7.39551138 172.456618,7.16965729 172.772116,7.05104421 C173.087613,6.93243113 173.396262,6.89404125 173.698064,6.93587459 C174.318435,7.02186535 174.543792,7.6768481 174.374134,8.90082286 L174.374134,8.90082286 L172.149995,24.9466289 C171.994282,26.070003 171.843176,27.0060375 171.696675,27.7547323 C171.550175,28.5034271 171.361301,29.2804263 171.130054,30.0857299 C170.898807,30.8910334 170.60568,31.4955094 170.250674,31.8991577 C169.895667,32.302806 169.49671,32.4995673 169.053801,32.4894417 C168.745027,32.4979087 168.508093,32.5120613 168.342998,32.5318996 C168.177904,32.5517378 167.974046,32.6046531 167.731426,32.6906456 C167.488806,32.776638 167.302089,32.9216461 167.171276,33.1256697 C167.040462,33.3296934 166.952977,33.5909896 166.908819,33.9095584 C166.74381,35.0999996 166.745431,36.3519878 166.913682,37.665523 C167.081934,38.9790583 167.455328,39.8297222 168.033865,40.217515 C169.958724,40.2621673 173.000234,40.5726787 177.158395,41.1490491 C181.316556,41.7254196 184.327852,42.2538991 186.192285,42.7344876 Z M239.009014,58.3516584 C239.699614,58.2613205 240.412108,57.6651624 241.146497,56.563184 C241.880886,55.4612057 242.43865,54.3403237 242.819789,53.2005381 C242.921784,52.895525 242.959515,52.6225674 242.932981,52.3816653 C242.906447,52.1407633 242.803608,51.9278905 242.624466,51.7430472 C242.445323,51.5582038 242.286209,51.4202168 242.147123,51.329086 C242.008036,51.2379552 241.802066,51.1199964 241.52921,50.9752096 C240.983398,50.7926923 240.541395,49.8060135 240.203202,48.0151733 C239.86501,46.2243332 239.662172,44.2288771 239.594687,42.0288051 L239.594687,42.0288051 L238.83756,19.3134061 C238.801006,18.3552171 238.632957,17.7635703 238.333415,17.5384658 C236.685035,17.2371329 234.343807,16.5791756 231.30973,15.5645939 C228.002746,14.4587536 225.022299,13.3371669 222.368389,12.1998338 C221.908006,12.2422164 221.342842,12.7046949 220.672897,13.5872694 C220.002952,14.4698438 219.404939,15.6977437 218.87886,17.2709689 C218.723183,17.7365152 218.677324,18.1138449 218.741281,18.4029581 C218.805239,18.6920713 218.928156,18.8982721 219.110034,19.0215607 C219.291912,19.1448493 219.472461,19.2587692 219.65168,19.3633204 C219.8309,19.4678715 219.964567,19.6285838 220.052681,19.845457 C220.140795,20.0623303 220.123118,20.3553801 219.999651,20.7246064 C219.843974,21.1901526 219.404399,21.8641874 218.680926,22.7467107 L218.680926,22.7467107 L207.619848,36.209179 C207.041059,36.9259033 206.410302,37.4110686 205.727575,37.664675 C205.044849,37.9182813 204.423831,38.0140386 203.864521,37.9519467 C203.305211,37.8898548 202.761954,37.8331311 202.234751,37.7817756 C201.707547,37.73042 201.233719,37.8397 200.813265,38.1096154 C200.392811,38.3795308 200.056432,38.8917415 199.804129,39.6462475 C198.891542,42.3753117 198.812169,44.2139282 199.56601,45.162097 C201.225075,45.4848514 203.419139,46.102522 206.148203,47.0151086 C208.877267,47.9276953 211.001546,48.754059 212.521038,49.4941996 C214.260932,49.2549856 215.716008,47.3855668 216.886266,43.8859433 C216.982893,43.5969836 216.91891,43.3346344 216.694317,43.0988959 C216.469724,42.8631573 216.174195,42.6393949 215.807729,42.4276084 C215.441264,42.215822 215.086864,41.9812976 214.744529,41.7240353 C214.402195,41.466773 214.153624,41.115926 213.998817,40.6714943 C213.84401,40.2270626 213.865918,39.7078604 214.06454,39.1138876 C214.252425,38.5520214 214.887733,37.506153 215.970464,35.9762822 L215.970464,35.9762822 L226.276695,39.4226389 C226.403791,40.8573151 226.266034,42.1766527 225.863422,43.3806516 C225.396392,44.7772903 224.742807,45.3440642 223.902666,45.0809734 C223.619024,45.0218214 223.38487,44.9881425 223.200206,44.9799368 C223.015542,44.9717311 222.804088,44.9902639 222.565844,45.0355352 C222.3276,45.0808065 222.121412,45.1903422 221.94728,45.3641423 C221.773147,45.5379424 221.635083,45.777349 221.533088,46.0823621 C221.151949,47.2221477 220.923278,48.4530769 220.847075,49.7751497 C220.770873,51.0972225 220.981444,52.0020496 221.47879,52.4896312 C223.715774,53.0056392 227.033571,53.9990807 231.43218,55.4699557 C234.755217,56.5811641 237.280829,57.5417317 239.009014,58.3516584 Z M226.586056,34.9747443 L218.904543,32.4060812 L224.604063,25.2896058 C225.547273,24.1235932 226.091118,23.5647436 226.235598,23.613057 C226.283758,23.6291615 226.326524,23.6880833 226.363897,23.7898226 C226.401269,23.8915618 226.427867,24.0655537 226.44369,24.3117984 C226.459513,24.5580431 226.471336,24.7895637 226.479158,25.0063602 C226.48698,25.2231567 226.490661,25.5724315 226.4902,26.0541845 C226.500527,26.4503028 226.505589,26.7554181 226.505384,26.9695306 C226.562141,30.6855098 226.589907,33.185242 226.588719,34.4687272 L226.587883,34.743326 C226.587445,34.8276621 226.586836,34.9048016 226.586056,34.9747443 L226.586056,34.9747443 Z M257.477375,40.5954509 C258.473203,41.1018435 259.645245,41.2990543 260.9935,41.1870832 C262.341755,41.0751121 263.629087,40.7375141 264.855497,40.1742892 C266.081907,39.6110643 267.207113,38.9014262 268.231116,38.0453748 C269.255118,37.1893234 269.997298,36.3086484 270.457655,35.4033498 C271.224916,33.8945188 271.326301,32.3414242 270.761809,30.7440661 C270.197317,29.146708 269.130479,27.9490529 267.561295,27.1511008 C265.901581,26.307113 264.317034,26.0995319 262.807654,26.5283575 C261.298274,26.9571832 260.15228,27.9410998 259.369673,29.4801075 C258.901644,30.4004944 258.708407,31.2659702 258.789962,32.0765347 C258.871517,32.8870993 259.090601,33.5112351 259.447214,33.9489421 C259.803827,34.3866491 260.136082,34.7882323 260.44398,35.1536918 C260.751877,35.5191512 260.863626,35.7848666 260.779227,35.950838 C260.587412,36.3280458 260.151816,36.6524999 259.472439,36.9242005 C258.793062,37.195901 258.121422,37.4430509 257.457519,37.6656501 C256.793616,37.8882494 256.392611,38.1353439 256.254503,38.4069334 C256.093379,38.723788 256.117342,39.0967828 256.326395,39.5259179 C256.535447,39.9550531 256.919107,40.3115641 257.477375,40.5954509 Z M273.664933,79.1655785 C275.039754,80.1237595 276.438138,80.9075117 277.860085,81.5168352 C279.282033,82.1261586 280.763207,82.5394859 282.30361,82.7568171 C283.844012,82.9741483 285.341277,82.9499313 286.795405,82.6841662 C288.249533,82.418401 289.703342,81.8274499 291.15683,80.9113127 C292.610318,79.9951755 293.942186,78.772475 295.152435,77.2432113 C297.030082,74.5491182 297.717868,71.660203 297.215793,68.5764656 C296.713717,65.4927282 295.003478,62.4180545 292.085073,59.3524445 C291.455523,58.686721 290.911084,58.1061066 290.451756,57.6106012 C289.992428,57.1150958 289.456615,56.5147028 288.844317,55.8094224 C288.23202,55.1041419 287.733238,54.4728185 287.347973,53.915452 C286.962708,53.3580856 286.603429,52.7930389 286.270134,52.2203119 C285.93684,51.647585 285.739575,51.1387151 285.67834,50.6937024 C285.617106,50.2486896 285.683274,49.8873125 285.876846,49.6095709 C286.254311,49.0679749 286.942871,48.9237308 287.942524,49.1768386 C288.942177,49.4299465 290.066922,49.9920372 291.316759,50.8631109 C292.288855,51.5406126 293.121451,52.3220579 293.814548,53.2074468 C294.507644,54.0928357 295.024314,54.9945336 295.364557,55.9125405 C295.704799,56.8305474 295.940573,57.6912194 296.071879,58.4945565 C296.203184,59.2978937 296.256428,60.0726164 296.23161,60.8187245 C296.232033,61.0253455 296.537761,61.3415851 297.148792,61.7674433 C298.093113,62.4255879 299.153262,62.9323421 300.329239,63.287706 C301.505216,63.6430699 302.277098,63.5568974 302.644884,63.0291884 C303.235279,62.1820767 303.80347,60.9893696 304.349459,59.4510672 C304.895448,57.9127648 305.247131,56.8012782 305.404507,56.1166075 C305.561883,55.4319368 305.68244,54.881507 305.766177,54.4653183 L305.766177,54.4653183 L305.399431,54.147817 C305.168821,53.9458282 304.86078,53.6847156 304.475307,53.3644793 C304.089835,53.044243 303.751284,52.7824996 303.459656,52.5792491 C303.195801,52.3953557 302.954882,52.2377631 302.736897,52.1064713 C302.518912,51.9751794 302.330069,51.8538815 302.170368,51.7425777 C302.010666,51.6312738 301.850334,51.5504792 301.689371,51.5001937 C301.528408,51.4499083 301.403846,51.3992016 301.315684,51.3480735 C301.227522,51.2969455 301.116216,51.2864266 300.981766,51.3165168 C300.847315,51.3466069 300.75442,51.3540777 300.70308,51.338929 C300.65174,51.3237803 300.558214,51.3617602 300.422502,51.4528688 C300.28679,51.5439774 300.202312,51.5985795 300.169068,51.6166751 C300.135823,51.6347706 300.033355,51.7077837 299.861664,51.8357142 C299.689972,51.9636448 299.577826,52.0505449 299.525225,52.0964146 C298.565322,50.6021077 297.561341,49.252457 296.513281,48.0474627 C295.465221,46.8424683 294.13574,45.6786126 292.524839,44.5558954 C289.886295,42.7169621 287.323926,41.5088319 284.837734,40.9315047 C282.351542,40.3541776 280.002335,40.475825 277.790113,41.2964469 C275.577891,42.1170689 273.682974,43.6591767 272.105363,45.9227704 C271.302039,47.0753978 270.726167,48.2421196 270.377747,49.4229356 C270.029327,50.6037517 269.887421,51.7324889 269.952031,52.8091474 C270.016641,53.8858058 270.265043,54.9873952 270.697236,56.1139155 C271.12943,57.2404357 271.672087,58.3046737 272.325208,59.3066293 C272.978329,60.3085849 273.767795,61.359143 274.693606,62.4583036 C274.968824,62.7739124 275.341358,63.2089266 275.811207,63.7633462 C276.281056,64.3177658 276.676525,64.7790807 276.997613,65.147291 C277.318701,65.5155012 277.703754,65.9695572 278.152773,66.5094589 C278.601791,67.0493606 278.967803,67.5159361 279.250807,67.9091855 C279.533812,68.3024348 279.837016,68.7407112 280.16042,69.2240148 C280.483824,69.7073183 280.730849,70.1373896 280.901495,70.5142286 C281.072141,70.8910676 281.21575,71.2696954 281.332321,71.6501121 C281.448893,72.0305287 281.489822,72.3788591 281.455109,72.6951033 C281.420396,73.0113474 281.315932,73.2944532 281.141717,73.5444206 C280.63843,74.2665486 279.823206,74.5185235 278.696046,74.3003451 C277.568886,74.0821668 276.422048,73.5665766 275.255534,72.7535745 C273.686294,71.6598931 272.316198,69.962232 271.145245,67.6605912 C269.974292,65.3589504 269.461815,63.289276 269.607814,61.4515679 C269.446215,61.091351 269.108505,60.7321886 268.594683,60.3740805 C267.733684,59.7740075 266.758016,59.3828716 265.667678,59.2006725 C264.577339,59.0184735 263.82408,59.2259462 263.407901,59.8230905 C262.149683,61.6284106 261.057705,64.7050154 260.131967,69.052905 C261.13773,69.9189322 262.119716,70.6858573 263.077924,71.3536805 C263.397327,71.5762882 263.688534,71.7431381 263.951546,71.8542301 C264.214558,71.9653222 264.425493,72.0401195 264.584352,72.0786221 C264.743211,72.1171247 264.911327,72.1053396 265.0887,72.0432668 C265.266074,71.981194 265.390424,71.9285902 265.461752,71.8854556 C265.53308,71.8423209 265.652485,71.7450055 265.819968,71.5935093 C265.987451,71.4420131 266.097494,71.3433301 266.150095,71.2974604 C267.479911,73.9780444 269.984857,76.6007504 273.664933,79.1655785 Z" id="LOLITA’S"></path>
                    <path d="M77.8757633,129.303497 C78.3862615,128.829703 78.6215069,127.930975 78.5814994,126.607313 C78.5414919,125.28365 78.34658,124.046926 77.9967637,122.89714 C77.9031509,122.589451 77.7757365,122.345126 77.6145207,122.164163 C77.4533048,121.983201 77.2461418,121.869298 76.9930317,121.822453 C76.7399215,121.775608 76.5302855,121.755346 76.3641234,121.761667 C76.1979614,121.767988 75.9617424,121.7912 75.6554665,121.831304 C75.2196373,121.910823 74.7947412,121.779121 74.3807781,121.436198 C73.966815,121.093275 73.578394,120.543533 73.2155153,119.786971 C72.8526365,119.03041 72.5388654,118.289871 72.2742019,117.565354 C72.0095384,116.840837 71.7146159,115.944171 71.3894346,114.875356 L71.3894346,114.875356 L66.6743044,99.3775423 C66.3146341,98.1953684 66.442488,97.5106686 67.0578662,97.323443 C67.2521962,97.2643191 67.4694042,97.2513142 67.7094902,97.2844283 C67.9495763,97.3175424 68.2081386,97.4113846 68.4851771,97.5659549 C68.7622155,97.7205253 69.0283402,97.8828394 69.2835509,98.0528972 C69.5387617,98.2229551 69.8270577,98.458143 70.1484391,98.7584608 C70.4698206,99.0587785 70.749313,99.3231846 70.9869163,99.551679 C71.2245197,99.7801733 71.5122811,100.086297 71.8502004,100.470049 C72.1881196,100.853801 72.4572233,101.156754 72.6575114,101.378908 C72.8577995,101.601062 73.1228546,101.905247 73.4526768,102.291463 C73.782499,102.677678 74.014994,102.947537 74.1501617,103.101037 C74.2621076,103.120058 74.4152456,103.100006 74.6095755,103.040882 C75.4840603,102.774825 76.5322982,102.265702 77.7542893,101.513514 C78.9762804,100.761327 79.648195,100.20746 79.7700333,99.8519141 C79.7672453,99.5519784 79.7338258,99.2967485 79.669775,99.0862244 C79.4628413,98.4060695 79.1381659,97.5715354 78.6957487,96.582622 C78.2533315,95.5937086 77.8450499,94.7315317 77.470904,93.9960913 C77.096758,93.2606509 76.6687589,92.435436 76.1869066,91.5204466 C75.7050543,90.6054572 75.4159085,90.0476274 75.3194693,89.8469573 C72.4573037,90.9654609 66.6861852,92.8451462 58.0061139,95.4860133 L57.4283214,95.6616281 C48.8235524,98.274317 43.0141119,99.9180157 40,100.592724 C40.0316626,100.813102 40.1021871,101.437446 40.2115737,102.465757 C40.3209603,103.494067 40.4263079,104.42187 40.5276165,105.249166 C40.6289252,106.076463 40.7700031,107.019935 40.9508502,108.079583 C41.1316973,109.139231 41.3255877,110.009133 41.5325213,110.689288 C41.5965722,110.899812 41.7109625,111.130407 41.8756921,111.381073 C42.1749021,111.608517 43.0414329,111.694319 44.4752845,111.63848 C45.9091362,111.582642 47.0633044,111.421694 47.9377892,111.155636 C48.115925,111.101439 48.254282,111.032805 48.3528602,110.949734 C48.3831479,110.816667 48.4555348,110.356737 48.570021,109.569945 C48.6845071,108.783154 48.7739762,108.233984 48.8384284,107.922438 C48.9028805,107.610891 49.0058988,107.106256 49.1474834,106.408532 C49.289068,105.710808 49.4288766,105.18171 49.566909,104.821237 C49.7049415,104.460764 49.8723736,104.051537 50.0692054,103.593556 C50.2660372,103.135574 50.4827488,102.78655 50.7193402,102.546483 C50.9559317,102.306416 51.2199749,102.14204 51.5114698,102.053354 C52.1106538,101.871055 52.590081,102.370993 52.9497513,103.553167 L52.9497513,103.553167 L57.6648815,119.050981 C57.9949899,120.13599 58.2506587,121.049022 58.4318878,121.790076 C58.613117,122.531131 58.7677633,123.31566 58.8958267,124.143663 C59.0238901,124.971666 59.0115055,125.643351 58.8586729,126.158719 C58.7058403,126.674087 58.4262904,127.020113 58.0200231,127.196797 C57.7433092,127.334065 57.5341887,127.446345 57.3926616,127.533637 C57.2511345,127.620929 57.0883048,127.754511 56.9041726,127.934385 C56.7200403,128.114258 56.6114171,128.324238 56.578303,128.564324 C56.5451889,128.80441 56.5754383,129.078298 56.6690511,129.385987 C57.0188675,130.535773 57.5457597,131.671493 58.2497279,132.793149 C58.953696,133.914805 59.649615,134.530232 60.3374849,134.639428 C62.1033744,133.872154 64.9943954,132.87757 69.0105478,131.655676 L69.4873929,131.51115 C73.2614082,130.371758 76.0575317,129.635874 77.8757633,129.303497 Z M132.332575,121.199435 C132.920944,120.826729 133.316206,119.986002 133.518359,118.677256 C133.720512,117.368509 133.754499,116.116981 133.620321,114.922672 C133.584414,114.603068 133.503713,114.339598 133.378218,114.13226 C133.252722,113.924923 133.069817,113.775136 132.829501,113.6829 C132.589185,113.590664 132.386764,113.532496 132.222237,113.508397 C132.057711,113.484297 131.821221,113.464024 131.512769,113.447577 C130.940846,113.511831 130.124505,112.802968 129.063744,111.320986 C128.002984,109.839004 126.978845,108.114438 125.991329,106.147287 L125.991329,106.147287 L115.740622,85.8621793 C115.304036,85.0084494 114.902505,84.5425533 114.53603,84.4644911 C112.914004,84.8851926 110.513383,85.2741328 107.334165,85.6313118 C103.868987,86.020618 100.693361,86.2581583 97.8072902,86.3439328 C97.407547,86.5762126 97.0896371,87.2336547 96.8535605,88.3162591 C96.6174839,89.3988636 96.5920476,90.7644074 96.7772515,92.4128905 C96.8320568,92.9007069 96.9493288,93.2622703 97.1290677,93.4975806 C97.3088065,93.732891 97.507116,93.8681719 97.7239961,93.9034233 C97.9408763,93.9386748 98.1526062,93.965988 98.3591858,93.9853632 C98.5657655,94.0047383 98.7546726,94.0942332 98.9259072,94.2538478 C99.0971418,94.4134625 99.2044922,94.6867143 99.2479584,95.0736032 C99.3027637,95.5614196 99.187841,96.3578754 98.9031905,97.4629707 L98.9031905,97.4629707 L94.5384559,114.331123 C94.3152337,115.224914 93.9473793,115.930552 93.4348928,116.448035 C92.9224063,116.965518 92.399432,117.313844 91.86597,117.493013 C91.332508,117.672181 90.8158673,117.84946 90.3160478,118.024849 C89.8162284,118.200238 89.4324551,118.498857 89.1647281,118.920708 C88.8970011,119.342559 88.8075487,119.948784 88.896371,120.739383 C89.2176431,123.598997 89.9197686,125.300123 91.0027476,125.842762 C92.6434841,125.436992 94.8936592,125.073471 97.7532728,124.752199 C100.612886,124.430926 102.887629,124.286082 104.577502,124.317664 C106.054946,123.368132 106.587676,121.059849 106.175692,117.392815 C106.141675,117.090032 105.973181,116.879009 105.670212,116.759745 C105.367242,116.64048 105.004972,116.561946 104.583402,116.52414 C104.161832,116.486335 103.741632,116.422825 103.322804,116.333611 C102.903975,116.244397 102.530791,116.03082 102.203254,115.69288 C101.875716,115.354939 101.676985,114.874776 101.607061,114.252389 C101.540917,113.663645 101.676824,112.44751 102.014781,110.603982 L102.014781,110.603982 L112.814028,109.390707 C113.533358,110.638511 113.963892,111.893209 114.105629,113.154804 C114.270045,114.618253 113.915845,115.407524 113.04303,115.522617 C112.760848,115.588386 112.53428,115.656425 112.363327,115.726732 C112.192373,115.797039 112.008378,115.902878 111.811341,116.04425 C111.614304,116.185622 111.4734,116.371788 111.38863,116.602748 C111.30386,116.833708 111.279428,117.10899 111.315335,117.428594 C111.449513,118.622904 111.760362,119.83569 112.24788,121.066953 C112.735398,122.298216 113.307359,123.030277 113.963763,123.263136 C116.210065,122.789332 119.637728,122.293522 124.246752,121.775707 C127.728752,121.384511 130.424026,121.19242 132.332575,121.199435 Z M111.221917,105.226016 L103.172946,106.130302 L105.346387,97.2756475 C105.71099,95.8208983 105.968987,95.0850195 106.120378,95.068011 C106.170842,95.0623414 106.234441,95.0977802 106.311175,95.1743271 C106.387909,95.250874 106.485291,95.3974939 106.603321,95.6141868 C106.721351,95.8308797 106.829552,96.0359015 106.927926,96.2292523 C107.0263,96.4226032 107.176695,96.7378613 107.379112,97.1750267 C107.555258,97.5299756 107.688313,97.804598 107.778276,97.9988937 C109.642932,101.860428 110.790813,104.269468 111.221917,105.226016 L111.221917,105.226016 Z M157.754465,122.33855 C160.171526,122.468887 162.382982,122.325386 164.388833,121.908047 C166.394683,121.490709 168.050925,120.876525 169.357559,120.065497 C170.664193,119.254469 171.685638,118.3094 172.421895,117.230291 C173.158151,116.151182 173.559092,115.003137 173.624716,113.786155 C173.691252,112.552271 173.442357,111.352232 172.878031,110.186039 C169.882385,111.668815 166.795725,112.324526 163.61805,112.153174 C162.14753,112.073878 160.773248,111.703117 159.495203,111.040891 C158.217158,110.378665 157.116901,109.484465 156.194431,108.35829 C155.271962,107.232116 154.56645,105.854889 154.077896,104.226611 C153.589342,102.598333 153.396562,100.829202 153.499556,98.919216 C153.650857,96.1133966 154.380467,93.9786876 155.688386,92.515089 C156.996306,91.0514905 158.55455,90.3684538 160.363121,90.4659789 C161.580103,90.5316033 162.764128,90.9726254 163.915197,91.789045 C165.066265,92.6054647 166.058975,93.7650923 166.893327,95.2679279 C167.301388,96.188371 167.91108,96.6704673 168.722401,96.7142169 C168.857621,96.7215085 169.749105,96.6932982 171.396854,96.6295861 C171.940469,96.608045 172.323054,96.5862963 172.54461,96.5643401 C172.766166,96.5423839 173.01467,96.4922154 173.290124,96.4138347 C173.565577,96.335454 173.754571,96.2100319 173.857105,96.0375683 C173.959639,95.8651048 174.048461,95.6325709 174.12357,95.3399668 C174.198679,95.0473626 174.24945,94.6559739 174.275882,94.1658007 C174.311428,93.5066021 174.254178,92.3677527 174.10413,90.7492523 C173.950437,89.1983621 173.781373,88.0111041 173.596938,87.1874782 C173.412504,86.3638524 173.095956,85.711095 172.647294,85.2292062 C172.198633,84.7473174 171.70237,84.4408543 171.158507,84.309817 C170.614643,84.1787798 169.784928,84.0831833 168.669361,84.0230276 C167.418574,83.9555803 166.59847,83.9961155 166.209049,84.1446331 C165.819628,84.2931507 165.610789,84.6293987 165.582534,85.1533771 C165.576154,85.2716947 165.578929,85.5345954 165.59086,85.9420789 C164.001444,84.9240293 162.535524,84.2092934 161.1931,83.7978711 C159.850676,83.3864488 158.249824,83.130608 156.390547,83.0303485 C154.14251,82.9091256 152.027457,83.1510589 150.045385,83.7561483 C148.063314,84.3612377 146.346007,85.2433551 144.893463,86.4025007 C143.44092,87.5616462 142.176273,88.930106 141.09952,90.50788 C140.022767,92.085654 139.193628,93.7869662 138.612102,95.6118165 C138.030576,97.4366669 137.687405,99.3209874 137.582588,101.264778 C137.474126,103.276179 137.63484,105.247001 138.064732,107.177246 C138.494623,109.107491 139.238227,110.957181 140.295542,112.726314 C141.352857,114.495448 142.662655,116.062063 144.224934,117.426159 C145.787213,118.790254 147.73125,119.912185 150.057044,120.79195 C152.382839,121.671716 154.948645,122.187249 157.754465,122.33855 Z M197.082307,128.436684 C199.508026,128.991149 201.838981,129.276521 204.075171,129.2928 C206.311362,129.309079 208.459035,129.009943 210.518191,128.395392 C212.577348,127.780841 214.433184,126.85936 216.0857,125.630951 C217.738216,124.402541 219.188473,122.767603 220.436471,120.726138 C221.684468,118.684673 222.619647,116.302567 223.242006,113.579822 C223.721034,111.484133 223.890304,109.452208 223.749817,107.484049 C223.60933,105.515889 223.131859,103.635657 222.317402,101.843352 C221.502945,100.051048 220.380498,98.4097298 218.950062,96.9193991 C217.519626,95.4290684 215.702581,94.1108225 213.498929,92.9646616 C211.295277,91.8185006 208.790825,90.924811 205.985571,90.2835927 C199.153955,88.7220375 193.402115,89.1783879 188.730051,91.6526438 C184.057987,94.1268996 181.043018,98.3342956 179.685144,104.274831 C178.304638,110.314376 179.188264,115.469336 182.336019,119.73971 C185.483775,124.010084 190.399204,126.909075 197.082307,128.436684 Z M198.801565,122.396434 C196.161327,121.792934 195.808693,117.258552 197.743663,108.793289 C199.803106,99.7834758 201.987931,95.5426005 204.29814,96.0706626 C204.925196,96.2139937 205.438745,96.5310616 205.838786,97.021866 C206.238827,97.5126705 206.504379,98.1550523 206.635444,98.9490115 C206.766508,99.7429707 206.839581,100.562743 206.854663,101.408327 C206.869745,102.253912 206.799137,103.227501 206.642837,104.329094 C206.486538,105.430686 206.32965,106.401917 206.172173,107.242786 C206.014697,108.083655 205.817144,109.023886 205.579516,110.06348 C205.383379,110.921558 205.222721,111.605426 205.097542,112.115087 C204.972363,112.624747 204.793671,113.330539 204.561466,114.232463 C204.329261,115.134387 204.109079,115.869764 203.900921,116.438593 C203.692763,117.007423 203.446415,117.667364 203.161877,118.418417 C202.87734,119.169469 202.583609,119.77083 202.280686,120.222498 C201.977763,120.674166 201.644665,121.105914 201.281394,121.517743 C200.918122,121.929571 200.525385,122.204437 200.103181,122.34234 C199.680977,122.480243 199.247105,122.498274 198.801565,122.396434 Z M238.809929,142.049967 C240.345638,142.720668 241.870331,143.215701 243.384007,143.535067 C244.897683,143.854432 246.431098,143.970002 247.984252,143.881775 C249.537406,143.793549 251.001001,143.476881 252.375038,142.931772 C253.749074,142.386663 255.059179,141.522714 256.305351,140.339925 C257.551524,139.157136 258.618452,137.697501 259.506135,135.96102 C260.820439,132.951651 260.929759,129.984004 259.834096,127.058078 C258.738433,124.132153 256.459724,121.451477 252.99797,119.016049 C252.250345,118.486353 251.602838,118.02347 251.055447,117.6274 C250.508056,117.23133 249.865139,116.747363 249.126694,116.175499 C248.38825,115.603634 247.775598,115.082089 247.288736,114.610865 C246.801875,114.13964 246.338994,113.6558 245.900094,113.159345 C245.461194,112.662889 245.168189,112.202444 245.021077,111.77801 C244.873965,111.353576 244.868156,110.986237 245.003652,110.675993 C245.267867,110.071017 245.914902,109.794853 246.944755,109.847502 C247.974609,109.900151 249.187585,110.23134 250.583684,110.841068 C251.669539,111.315302 252.638926,111.918761 253.491843,112.651447 C254.344761,113.384132 255.027851,114.167327 255.541114,115.001032 C256.054377,115.834736 256.453973,116.632651 256.739903,117.394777 C257.025833,118.156903 257.229611,118.906239 257.351238,119.642785 C257.392076,119.84533 257.753764,120.095648 258.436301,120.393737 C259.491131,120.854421 260.629934,121.14398 261.852709,121.262414 C263.075484,121.380848 263.815592,121.145333 264.073033,120.555869 C264.486293,119.609624 264.810169,118.328805 265.044661,116.713413 C265.279152,115.09802 265.406592,113.93921 265.426982,113.236981 C265.447371,112.534752 265.457914,111.971373 265.458611,111.546845 L265.458611,111.546845 L265.036838,111.307227 C264.771167,111.154257 264.417995,110.958454 263.977322,110.719818 C263.536649,110.481182 263.153434,110.290729 262.827677,110.148459 C262.532945,110.019738 262.26585,109.912324 262.026392,109.826214 C261.786934,109.740105 261.57801,109.658096 261.39962,109.580186 C261.221229,109.502276 261.048189,109.454409 260.880499,109.436586 C260.712808,109.418762 260.580733,109.393404 260.484272,109.360512 C260.387811,109.327619 260.276598,109.339079 260.150632,109.394891 C260.024667,109.450703 259.935028,109.476203 259.881717,109.471391 C259.828405,109.466579 259.744117,109.522122 259.628851,109.63802 C259.513586,109.753919 259.441422,109.823993 259.41236,109.848242 C259.383298,109.872492 259.297095,109.96414 259.153749,110.123188 C259.010403,110.282235 258.917424,110.389396 258.874813,110.44467 C257.641119,109.16703 256.392498,108.039874 255.12895,107.063202 C253.865402,106.08653 252.333919,105.205258 250.534503,104.419386 C247.587182,103.132181 244.837974,102.448687 242.286877,102.368904 C239.735781,102.289121 237.455767,102.868007 235.446836,104.105562 C233.437905,105.343117 231.881296,107.226139 230.77701,109.75463 C230.214704,111.042144 229.878213,112.298982 229.767535,113.525144 C229.656857,114.751306 229.738516,115.885994 230.01251,116.929208 C230.286504,117.972422 230.745616,119.004128 231.389846,120.024328 C232.034076,121.044527 232.774451,121.982037 233.610969,122.836858 C234.447488,123.691678 235.427226,124.567488 236.550183,125.464288 C236.881827,125.719955 237.332267,126.073682 237.901501,126.525469 C238.470735,126.977256 238.948812,127.352289 239.335731,127.650568 C239.722649,127.948847 240.189092,128.318799 240.735058,128.760424 C241.281024,129.202049 241.731242,129.588003 242.085711,129.918288 C242.440181,130.248573 242.823268,130.619062 243.234975,131.029757 C243.646681,131.440452 243.97307,131.813886 244.214142,132.150059 C244.455214,132.486232 244.670121,132.829448 244.858863,133.179708 C245.047605,133.529968 245.155889,133.863561 245.183715,134.180485 C245.211541,134.49741 245.164482,134.795482 245.042536,135.074701 C244.690248,135.881337 243.940073,136.287929 242.79201,136.29448 C241.643947,136.30103 240.418402,136.019766 239.115376,135.450686 C237.362496,134.685137 235.686751,133.288321 234.088142,131.260236 C232.489532,129.232151 231.582055,127.302729 231.365711,125.471969 C231.136764,125.150327 230.735315,124.864173 230.161363,124.613507 C229.199605,124.193472 228.16627,124.000769 227.061356,124.0354 C225.956442,124.070031 225.258328,124.420859 224.967013,125.087884 C224.086294,127.104472 223.617311,130.335257 223.560064,134.780238 C224.715818,135.432767 225.828867,135.992761 226.89921,136.46022 C227.255991,136.616039 227.574213,136.722694 227.853876,136.780185 C228.133539,136.837676 228.355031,136.869761 228.518353,136.876442 C228.681675,136.883122 228.844236,136.838675 229.006039,136.743101 C229.167841,136.647527 229.279497,136.571612 229.341008,136.515357 C229.402519,136.459101 229.500579,136.340306 229.635187,136.158972 C229.769796,135.977637 229.858406,135.859333 229.901017,135.804059 C231.729555,138.172685 234.699193,140.254654 238.809929,142.049967 Z" id="TACOS"></path>
                </g>
            </g>
        </g>
    </g>
</svg>